<?xml version="1.0" encoding="utf-8"?>
<!-- Generator: Adobe Illustrator 22.0.0, SVG Export Plug-In . SVG Version: 6.00 Build 0)  -->
<svg version="1.1" id="Layer_1" xmlns="http://www.w3.org/2000/svg" xmlns:xlink="http://www.w3.org/1999/xlink" x="0px" y="0px"
	 viewBox="0 0 400 120" style="enable-background:new 0 0 400 120;" xml:space="preserve">
<style type="text/css">
	.st0{fill:#B79700;}
	.st1{fill:#323232;}
</style>
<path class="st0" d="M59.2,47.2C58.6,37.1,50.7,33.4,42,33.4c-8.6,0-15.6,4.5-15.6,11.5c0,6,4.7,8.5,11.2,10L51.5,58
	c9.6,2.1,18.2,5.7,18.2,19.4c0,13.2-11.2,20-26.7,20c-16.6,0-27.8-7.9-27.8-23.9h9c0.6,12.8,8.7,16.7,19,16.7
	c10.9,0,17.7-4.7,17.7-12.6c0-7.5-5.5-10.2-12.5-11.9l-14.1-3.4c-8.6-2-16.6-5.7-16.6-17.4c0-11.6,10.4-18.8,24.5-18.8
	c14.3,0,25.9,7.3,26,21L59.2,47.2L59.2,47.2z"/>
<path class="st0" d="M91.2,52.7h0.4c3.1-5,8.9-8.2,15.7-8.2c9.5,0,17.6,5.7,17.6,17.9V96h-8V65.2c0-9.9-3.8-13.9-11.9-13.9
	c-6.7,0-13.8,5.9-13.8,17.3V96h-8V26.7h8V52.7z"/>
<rect x="140.4" y="45.7" class="st0" width="8" height="50.3"/>
<path class="st0" d="M206.3,81.2c-0.5,6.7-6,15.9-21.1,15.9c-14.6,0-23.9-10.4-23.9-26.3c0-15.9,9.2-26.3,22.9-26.3
	c13.3,0,23,9.7,23,26.3c0,0.6,0,1.2-0.1,1.8h-37.6c-0.1,10.6,5.9,17.9,15.7,17.9c9.5,0,12.3-5.7,12.9-9.3H206.3L206.3,81.2z
	 M169.6,66.2h29.2c-0.5-7.6-5.7-15-14.7-15C175.4,51.2,170.1,58.6,169.6,66.2z"/>
<path class="st0" d="M220.6,26.7h8V96h-8V26.7z"/>
<path class="st0" d="M264.6,44.5c7.2,0,13.4,3.3,16,8.2h0.4v-26h8V96h-7.7v-7.5H281c-2.5,5.2-9,8.7-16.4,8.7
	c-13.2,0-22.7-10.3-22.7-26.3C241.9,54.8,251.4,44.5,264.6,44.5L264.6,44.5z M281.6,70.8c0-12.2-6.4-19.6-15.6-19.6
	c-9.5,0-15.8,7.4-15.8,19.6c0,12.3,6.3,19.7,15.8,19.7C275.2,90.5,281.6,83.1,281.6,70.8z"/>
<path class="st1" d="M306,96V27.7h8.6V96H306z"/>
<path class="st1" d="M383,35.2h-23.1V96h-8.6V35.2h-23.1v-7.5H383V35.2z"/>
<circle class="st0" cx="144.4" cy="34.1" r="7"/>
</svg>
